<svg width="21" height="21" viewBox="0 0 21 21" fill="none" xmlns="http://www.w3.org/2000/svg">
<path d="M9.41645 3.0473H6.80729C5.43736 3.0473 4.75239 3.0473 4.22914 3.3139C3.76888 3.54842 3.39468 3.92262 3.16016 4.38288C2.89355 4.90613 2.89355 5.5911 2.89355 6.96103V13.8101C2.89355 15.18 2.89355 15.865 3.16016 16.3882C3.39468 16.8485 3.76888 17.2227 4.22914 17.4572C4.75239 17.7238 5.43736 17.7238 6.80729 17.7238H13.6563C15.0263 17.7238 15.7112 17.7238 16.2345 17.4572C16.6947 17.2227 17.0689 16.8485 17.3035 16.3882C17.5701 15.865 17.5701 15.18 17.5701 13.8101V11.2009M10.2318 7.12411H13.4933V10.3856M13.0856 3.45498V2.23193M16.2976 4.3198L17.1624 3.45498M17.1707 7.53179H18.3938M2.89355 11.4839C3.42512 11.566 3.96973 11.6086 4.52428 11.6086C8.10075 11.6086 11.2635 9.8373 13.1832 7.12411" stroke="#EBE3D0" stroke-width="1.63072" stroke-linecap="round" stroke-linejoin="round"/>
</svg>
