<svg width="21" height="21" viewBox="0 0 21 21" fill="none" xmlns="http://www.w3.org/2000/svg">
<path d="M7.95418 7.93953V5.49345C7.95418 4.14251 6.85903 3.04736 5.5081 3.04736C4.15716 3.04736 3.06201 4.14251 3.06201 5.49345C3.06201 6.84438 4.15716 7.93953 5.5081 7.93953H7.95418ZM7.95418 7.93953V12.8317M7.95418 7.93953H12.8464M7.95418 12.8317V15.2778C7.95418 16.6287 6.85903 17.7239 5.5081 17.7239C4.15716 17.7239 3.06201 16.6287 3.06201 15.2778C3.06201 13.9269 4.15716 12.8317 5.5081 12.8317H7.95418ZM7.95418 12.8317H12.8464M12.8464 12.8317H15.2924C16.6434 12.8317 17.7385 13.9269 17.7385 15.2778C17.7385 16.6287 16.6434 17.7239 15.2924 17.7239C13.9415 17.7239 12.8464 16.6287 12.8464 15.2778V12.8317ZM12.8464 12.8317V7.93953M12.8464 7.93953V5.49345C12.8464 4.14251 13.9415 3.04736 15.2924 3.04736C16.6434 3.04736 17.7385 4.14251 17.7385 5.49345C17.7385 6.84438 16.6434 7.93953 15.2924 7.93953H12.8464Z" stroke="#EBE3D0" stroke-width="1.63072" stroke-linecap="round" stroke-linejoin="round"/>
</svg>
